<?xml version="1.0" encoding="UTF-8"?>
<svg width="1176px" height="773px" viewBox="0 0 1176 773" version="1.1" xmlns="http://www.w3.org/2000/svg" xmlns:xlink="http://www.w3.org/1999/xlink" xmlns:sketch="http://www.bohemiancoding.com/sketch/ns">
    <!-- Generator: Sketch 3.4.2 (15855) - http://www.bohemiancoding.com/sketch -->
    <title>Untitled</title>
    <desc>Created with Sketch.</desc>
    <defs>
        <filter x="-50%" y="-50%" width="200%" height="200%" filterUnits="objectBoundingBox" id="filter-1">
            <feOffset dx="0" dy="2" in="SourceAlpha" result="shadowOffsetOuter1"></feOffset>
            <feGaussianBlur stdDeviation="2" in="shadowOffsetOuter1" result="shadowBlurOuter1"></feGaussianBlur>
            <feColorMatrix values="0 0 0 0 0   0 0 0 0 0   0 0 0 0 0  0 0 0 0.35 0" in="shadowBlurOuter1" type="matrix" result="shadowMatrixOuter1"></feColorMatrix>
            <feMerge>
                <feMergeNode in="shadowMatrixOuter1"></feMergeNode>
                <feMergeNode in="SourceGraphic"></feMergeNode>
            </feMerge>
        </filter>
    </defs>
    <g id="Page-1" stroke="none" stroke-width="1" fill="none" fill-rule="evenodd" sketch:type="MSPage">
        <g id="Group" sketch:type="MSLayerGroup" transform="translate(4.566000, 2.863800)" filter="url(#filter-1)" fill="#F2F2F2">
            <path d="M78.4082079,763.488012 C78.4034375,762.708995 76.6144506,760.117405 74.4328616,757.728924 C70.7647276,753.71295 68.506908,753.141583 44.4195552,750.133466 C30.0941118,748.344415 17.9687666,746.880638 17.4755095,746.880638 C16.2429394,746.880638 16.3583826,716.156176 17.7475069,674.524193 L18.9079489,639.744813 L71.9287856,639.744813 L69.6531247,406.284836 L208.614218,406.284836 L219.468735,393.892124 C225.438767,387.076219 230.356645,380.059985 230.398624,378.30107 C230.439792,376.542154 232.756908,350.637656 235.547674,320.73523 L240.621733,266.367731 L229.481948,257.58956 L223.298108,264.283542 C219.89702,267.965262 215.509322,272.697496 213.547456,274.799905 C210.416181,278.155487 206.555419,279.084854 181.916038,282.4141 C166.480051,284.499758 153.336707,286.779526 152.707971,287.480329 C152.079436,288.181089 148.570241,292.172411 144.90974,296.35003 L138.2543,303.945488 L91.2288739,303.945488 L90.1246269,298.94851 C89.5172911,296.200129 89.0203799,291.176901 89.0203799,287.785398 L89.0203799,281.619696 L81.5114243,282.38975 C64.0184504,284.183637 35.383783,286.316095 34.8819393,285.862162 C34.4566697,285.477273 21.8817068,61.8486924 21.8817068,54.6731463 C21.8817068,53.6070034 18.3483837,52.8963567 13.0476357,52.8963567 C8.18891091,52.8963567 4.18780457,52.7164586 4.15622467,52.4965898 C1.73334999,35.6103107 -0.279940092,7.09118462 0.903208911,6.41680417 C1.77773358,5.91800442 39.5260925,4.18366369 84.7893414,2.56273286 C152.582129,0.134963252 167.33786,-0.0141603114 168.51996,1.71651924 C169.309018,2.87203258 170.47591,7.5932138 171.112946,12.2078412 L172.271289,20.598481 L217.28457,21.1566193 C249.404475,21.5548837 262.667078,22.2557472 263.586807,23.6032992 C264.295724,24.6419833 267.890642,71.3962357 271.575567,127.497608 C275.260493,183.602435 278.696787,229.880822 279.211797,230.347103 C279.726835,230.80873 284.773484,226.509179 290.426,220.79266 L300.704255,210.398912 L436.202055,209.597107 L506.168226,276.758837 L565.267478,276.758837 C597.771875,276.758837 624.366729,276.486469 624.366729,276.153579 C624.366729,275.820671 594.935409,233.25832 558.963901,181.567619 C522.992393,129.880373 493.949381,87.2407051 494.423557,86.8089634 C495.567493,85.7736469 581.019264,40.3872384 581.286405,40.6730513 C581.400379,40.7950529 599.611333,64.640757 621.75447,93.6632937 C643.897608,122.685831 662.24925,146.694983 662.535473,147.016199 C662.914441,147.442294 798.8824,70.1998624 835.499817,48.7604358 C838.83183,46.8092226 841.333988,50.0137818 879.353896,104.925706 C901.530426,136.954892 919.278139,163.741007 918.793468,164.45079 C918.308655,165.160755 883.25034,185.862585 840.885573,210.454589 C788.342728,240.95541 763.629311,256.184664 763.1351,258.365823 C762.736611,260.124739 761.980573,263.902478 761.454973,266.76078 L760.499371,271.957654 L1039.86221,271.957654 L1038.80815,248.371608 C1038.2284,235.399499 1037.31292,216.084241 1036.77377,205.448718 L1035.79346,186.111873 L1078.72495,185.163768 C1102.33736,184.642319 1121.76711,184.349339 1121.90259,184.512711 C1122.27675,184.962991 1127.9499,302.265927 1127.927,309.07881 L1127.90706,315.01733 L1162.35968,315.932622 L1163.5518,329.524712 C1164.20744,337.000233 1165.23994,347.886684 1165.84616,353.71606 L1166.94841,364.315317 L1156.70354,365.343985 C1151.06877,365.909748 1142.60135,366.794205 1137.88631,367.309446 L1129.31423,368.246239 L1130.41628,377.267912 C1131.0224,382.230005 1131.97295,389.708116 1132.52861,393.885648 L1133.53897,401.481106 L1046.18096,401.481106 L1048.71956,449.12466 L1030.44997,450.039175 C1020.40165,450.542137 998.465545,451.362204 981.703393,451.86147 L951.226405,452.769337 L951.113328,448.312381 C950.844098,437.701899 943.069613,372.778317 941.946476,371.761134 C940.699976,370.632993 782.033885,375.295544 767.779997,376.879258 L760.129743,377.729081 L761.295814,417.040885 L743.834324,418.001337 C734.230601,418.529565 726.197285,419.165917 725.982618,419.415464 C725.767951,419.665011 703.12774,458.006259 675.671356,504.618814 C648.214972,551.230505 622.63907,594.524694 618.836125,600.819487 L611.921177,612.274456 L574.935487,592.824495 C554.593644,582.126801 537.914496,572.832267 537.872517,572.169975 C537.829774,571.50739 560.89722,529.153828 589.13213,478.050297 C617.367994,426.946765 640.145592,384.845911 639.749651,384.483248 C639.353681,384.124868 611.703648,383.104438 578.305282,382.215568 L517.58124,380.599473 L392.272966,494.009368 L394.50846,528.093643 C395.737977,546.839866 397.078835,563.29354 397.488133,564.656116 C397.97289,566.270139 392.648872,571.224375 382.216247,578.866461 L366.200182,590.599472 L360.565889,585.894265 C357.467052,583.306405 344.776894,572.670018 332.365326,562.258137 C319.953758,551.846255 309.481826,543.613806 309.094471,543.965243 C308.706821,544.316085 310.221616,593.530911 312.460736,653.334037 C314.699855,713.134572 316.426064,762.16747 316.296692,762.296993 C315.213339,763.399575 78.426593,764.571235 78.4170522,763.474093 L78.4082079,763.488012 Z" id="Shape" sketch:type="MSShapeGroup"></path>
        </g>
    </g>
</svg>